REM DIRINDEX 1\2,1\3,1\4,1\5
REM DIRNAME "folder01","folder02","folder03","folder04","folder05"
TITLE ""
FILE "1Q_t_0749-0758.mp3" MP3
  TRACK 01 AUDIO
    TITLE "3:cjc172_3191"
    INDEX 01 00:00:00
  TRACK 02 AUDIO
    TITLE "0:"
    INDEX 01 00:01:23
  TRACK 03 AUDIO
    TITLE "4:cjc172_3192"
    INDEX 01 00:01:31
  TRACK 04 AUDIO
    TITLE "0:"
    INDEX 01 00:02:19
  TRACK 05 AUDIO
    TITLE "5:cjc172_3193"
    INDEX 01 00:02:25
  TRACK 06 AUDIO
    TITLE "0:"
    INDEX 01 00:06:23
  TRACK 07 AUDIO
    TITLE "3:cjc172_3194"
    INDEX 01 00:06:70
  TRACK 08 AUDIO
    TITLE "0:"
    INDEX 01 00:07:65
  TRACK 09 AUDIO
    TITLE "4:cjc172_3195"
    INDEX 01 00:07:73
  TRACK 10 AUDIO
    TITLE "0:"
    INDEX 01 00:10:52
  TRACK 11 AUDIO
    TITLE "5:cjc172_3196"
    INDEX 01 00:10:60
  TRACK 12 AUDIO
    TITLE "0:"
    INDEX 01 00:17:07
  TRACK 13 AUDIO
    TITLE "3:cjc172_3197"
    INDEX 01 00:17:54
  TRACK 14 AUDIO
    TITLE "0:"
    INDEX 01 00:18:57
  TRACK 15 AUDIO
    TITLE "4:cjc172_3198"
    INDEX 01 00:18:65
  TRACK 16 AUDIO
    TITLE "0:"
    INDEX 01 00:20:70
  TRACK 17 AUDIO
    TITLE "5:cjc172_3199"
    INDEX 01 00:21:01
  TRACK 18 AUDIO
    TITLE "0:"
    INDEX 01 00:26:39
  TRACK 19 AUDIO
    TITLE "3:cjc172_3200"
    INDEX 01 00:27:09
  TRACK 20 AUDIO
    TITLE "0:"
    INDEX 01 00:28:22
  TRACK 21 AUDIO
    TITLE "4:cjc172_3201"
    INDEX 01 00:28:30
  TRACK 22 AUDIO
    TITLE "0:"
    INDEX 01 00:30:58
  TRACK 23 AUDIO
    TITLE "5:cjc172_3202"
    INDEX 01 00:30:68
  TRACK 24 AUDIO
    TITLE "0:"
    INDEX 01 00:34:52
  TRACK 25 AUDIO
    TITLE "3:cjc172_3203"
    INDEX 01 00:35:24
  TRACK 26 AUDIO
    TITLE "0:"
    INDEX 01 00:36:34
  TRACK 27 AUDIO
    TITLE "4:cjc172_3204"
    INDEX 01 00:36:41
  TRACK 28 AUDIO
    TITLE "0:"
    INDEX 01 00:38:34
  TRACK 29 AUDIO
    TITLE "5:cjc172_3205"
    INDEX 01 00:38:42
  TRACK 30 AUDIO
    TITLE "0:"
    INDEX 01 00:43:04
  TRACK 31 AUDIO
    TITLE "3:cjc172_3206"
    INDEX 01 00:43:49
  TRACK 32 AUDIO
    TITLE "0:"
    INDEX 01 00:45:05
  TRACK 33 AUDIO
    TITLE "4:cjc172_3207"
    INDEX 01 00:45:13
  TRACK 34 AUDIO
    TITLE "0:"
    INDEX 01 00:46:48
  TRACK 35 AUDIO
    TITLE "5:cjc172_3208"
    INDEX 01 00:46:55
  TRACK 36 AUDIO
    TITLE "0:"
    INDEX 01 00:50:67
  TRACK 37 AUDIO
    TITLE "3:cjc172_3209"
    INDEX 01 00:51:39
  TRACK 38 AUDIO
    TITLE "0:"
    INDEX 01 00:52:70
  TRACK 39 AUDIO
    TITLE "4:cjc172_3210"
    INDEX 01 00:53:03
  TRACK 40 AUDIO
    TITLE "0:"
    INDEX 01 00:56:28
  TRACK 41 AUDIO
    TITLE "5:cjc172_3211"
    INDEX 01 00:56:36
  TRACK 42 AUDIO
    TITLE "0:"
    INDEX 01 01:03:01
  TRACK 43 AUDIO
    TITLE "3:cjc172_3212"
    INDEX 01 01:03:46
  TRACK 44 AUDIO
    TITLE "0:"
    INDEX 01 01:04:57
  TRACK 45 AUDIO
    TITLE "4:cjc172_3213"
    INDEX 01 01:04:69
  TRACK 46 AUDIO
    TITLE "0:"
    INDEX 01 01:07:20
  TRACK 47 AUDIO
    TITLE "5:cjc172_3214"
    INDEX 01 01:07:26
  TRACK 48 AUDIO
    TITLE "0:"
    INDEX 01 01:11:22
  TRACK 49 AUDIO
    TITLE "3:cjc172_3215"
    INDEX 01 01:11:69
  TRACK 50 AUDIO
    TITLE "0:"
    INDEX 01 01:12:71
  TRACK 51 AUDIO
    TITLE "4:cjc172_3216"
    INDEX 01 01:13:05
  TRACK 52 AUDIO
    TITLE "0:"
    INDEX 01 01:14:73
  TRACK 53 AUDIO
    TITLE "5:cjc172_3217"
    INDEX 01 01:15:06
  TRACK 54 AUDIO
    TITLE "0:"
    INDEX 01 01:19:24
  TRACK 55 AUDIO
    TITLE "3:cjc172_3218"
    INDEX 01 01:19:69
  TRACK 56 AUDIO
    TITLE "0:"
    INDEX 01 01:20:68
  TRACK 57 AUDIO
    TITLE "4:cjc172_3219"
    INDEX 01 01:21:01
  TRACK 58 AUDIO
    TITLE "0:"
    INDEX 01 01:24:68
  TRACK 59 AUDIO
    TITLE "5:cjc172_3220"
    INDEX 01 01:24:74
  TRACK 60 AUDIO
    TITLE "0:"
    INDEX 01 01:29:45
